<svg width="141" height="139" viewBox="0 0 141 139" fill="none" xmlns="http://www.w3.org/2000/svg">
<path d="M133.522 66.7629C133.53 75.946 131.606 85.0294 127.874 93.4311C124.141 101.833 118.683 109.367 111.848 115.552C109.946 117.274 107.947 118.886 105.861 120.382C103.183 122.301 100.363 124.017 97.4269 125.517H97.3961C96.7702 125.844 96.1341 126.154 95.4928 126.455C95.2004 126.598 94.9131 126.73 94.6156 126.863C92.7585 127.708 90.8535 128.467 88.9007 129.14C87.3616 129.649 85.7816 130.159 84.1861 130.577C74.983 133.008 65.3631 133.458 55.9706 131.896C54.8574 131.713 53.7596 131.504 52.6669 131.265L51.7435 131.056C48.956 130.409 46.2141 129.582 43.5353 128.58C41.9792 127.999 40.4539 127.362 38.9593 126.669C38.3796 126.399 37.7999 126.124 37.2304 125.838C36.8406 125.645 36.4558 125.446 36.071 125.247C25.6328 119.803 16.839 111.702 10.5902 101.772C4.34135 91.8427 0.862015 80.4422 0.508441 68.7382C0.154868 57.0341 2.93977 45.447 8.57798 35.1634C14.2162 24.8798 22.5051 16.2691 32.5959 10.2132C42.6868 4.15723 54.2169 0.873616 66.0058 0.698548C77.7946 0.523481 89.4184 3.46327 99.6871 9.21686C109.956 14.9705 118.5 23.3311 124.445 33.4427C130.391 43.5543 133.523 55.0536 133.522 66.7629Z" fill="url(#paint0_linear)"/>
<path d="M84.4316 71.5419C88.6691 75.8725 101.012 92.7265 101.012 92.7265L93.4298 103.767L86.6119 81.8336L84.4316 71.5419Z" fill="url(#paint1_linear)"/>
<path d="M97.3956 125.553C96.7698 125.879 96.1336 126.19 95.4924 126.491C95.1999 126.633 94.9127 126.766 94.6151 126.898C92.758 127.744 90.8531 128.503 88.9002 129.176C87.3612 129.685 85.7811 130.195 84.1857 130.612C74.9826 133.044 65.3626 133.494 55.9702 131.932C54.857 131.749 53.7591 131.54 52.6664 131.3C48.665 134.041 44.9713 136.359 42.5243 137.414L42.7243 135.718L43.5554 128.62L45.4792 112.108L53.1025 104.786L35.9629 106.106C35.9629 106.106 37.7635 81.2936 44.7918 76.1885C51.82 71.0834 59.1919 66.5082 59.1919 66.5082C60.0714 67.0842 61.0402 67.5128 62.0596 67.7768C64.4973 68.446 67.0311 68.7027 69.5547 68.536C72.5609 68.3984 75.5671 65.6217 75.7108 65.479C75.7108 65.479 80.4304 66.4114 84.4319 71.5623C86.4276 74.2139 87.8605 77.2403 88.6437 80.4581C89.6287 84.2232 91.378 93.017 93.3685 103.64C94.6716 110.477 96.0413 118.059 97.3956 125.553Z" fill="url(#paint2_linear)"/>
<path d="M101.012 92.7469L108.328 101.261L134.055 75.898L135.03 70.7063L140.16 66.2788L137.877 73.0296V81.8234C137.877 81.8234 118.034 113.769 112.565 115.414C106.168 117.345 93.4404 103.757 93.4404 103.757L101.012 92.7469Z" fill="url(#paint3_linear)"/>
<path d="M74.3057 104.389L80.272 118.655L87.9825 115.363L82.3291 101.403L74.3057 104.389Z" fill="#7E57C2"/>
<path d="M82.616 113.606C81.6566 114.39 80.2254 114.207 78.4503 114.298C76.0656 114.361 73.7784 115.251 71.9864 116.815C69.6009 118.807 62.9318 124.02 56.2627 128.778C55.052 129.639 53.8413 130.49 52.6717 131.326C48.6702 134.067 44.9766 136.385 42.5295 137.439C41.8862 137.757 41.1915 137.958 40.4775 138.036C37.0506 138.122 36.317 130.989 36.1066 125.298C36.04 123.408 36.0246 121.681 35.9886 120.433C35.845 115.44 35.9886 106.167 35.9886 106.167L53.1283 104.842L51.3122 116.632L50.9941 118.716V118.731L56.1242 116.846L56.2833 116.79L74.4951 110.07L75.7519 107.915L76.5522 109.952H76.6292L84.4269 108.934C84.4269 108.934 84.5603 112.021 82.616 113.606Z" fill="url(#paint4_linear)"/>
<path d="M78.6808 39.2503C78.2345 38.0377 77.8497 37.2123 77.7369 36.9678V36.9066C77.7369 36.9066 77.3418 37.8747 74.3664 37.6403C71.3909 37.4059 70.406 35.9386 70.406 35.9386C70.406 35.9386 71.3396 39.1178 67.7948 40.4782C64.3832 41.7927 63.0392 40.9418 62.9468 40.8807C63.1264 41.0743 65.794 43.907 64.0241 46.1539C62.1927 48.4823 58.0732 48.0237 58.0732 48.0237V48.0543C58.5917 49.2203 59.1722 50.3581 59.8123 51.4628C60.1509 52.0436 60.4844 52.5786 60.8384 53.0779V53.1136C61.7469 54.5814 62.9737 55.8294 64.4294 56.7666C63.7896 60.4951 61.9521 63.9178 59.1916 66.5234C60.1203 67.0046 61.078 67.4283 62.0593 67.792C63.9728 68.5104 66.543 69.2237 68.8362 69.025C71.4932 68.7428 73.9484 67.4855 75.7207 65.4993L74.5459 61.0209L73.4891 56.9857C83.0414 54.5656 80.4148 44.0395 78.6808 39.2503ZM72.9556 57.1334L73.1249 57.0927L73.3968 57.0163C73.0011 57.1863 72.5831 57.2995 72.1553 57.3525C72.3759 57.2965 72.6016 57.2353 72.8376 57.164L72.9556 57.1334Z" fill="url(#paint5_linear)"/>
<path d="M84.4323 36.7742C80.4924 40.3712 78.7892 39.3573 78.6814 39.2605V39.2503C78.2351 38.0378 77.8504 37.2124 77.7426 36.9678L77.717 36.9067C77.717 36.9067 77.3169 37.8747 74.3414 37.6404C71.366 37.406 70.3861 35.9387 70.3861 35.9387C70.3861 35.9387 71.3198 39.1179 67.7749 40.4782C64.3583 41.7927 63.0142 40.9419 62.927 40.8807C63.1065 41.0692 65.7742 43.902 64.0043 46.1489C62.1728 48.4772 58.0534 48.0238 58.0534 48.0238V48.0493C58.5716 49.217 59.1522 50.3565 59.7925 51.4628C60.1345 52.0403 60.4765 52.5787 60.8185 53.078V53.1136C60.8185 53.1136 59.4129 55.8598 56.9042 55.8037C54.3956 55.7477 54.3392 53.2563 54.3392 53.2563C54.3392 53.2563 52.5642 56.4355 47.0801 53.3734C41.5961 50.3114 45.2538 45.8737 45.2538 45.8737C45.2538 45.8737 41.3652 42.9187 41.3652 38.4912C41.3652 34.0637 47.4187 30.696 47.4187 30.696C47.4187 30.696 45.2538 25.5552 48.9064 22.7224C52.5591 19.8897 58.0483 21.8104 58.0483 21.8104C58.0483 21.8104 57.9405 15.2329 63.5323 15.3399C69.1241 15.4469 70.3912 18.8452 70.3912 18.8452C70.3912 18.8452 75.4187 14.9833 80.3949 18.621C85.3711 22.2588 83.3242 28.602 83.3242 28.602C83.3242 28.602 88.5415 33.0295 84.4323 36.7742Z" fill="url(#paint6_linear)"/>
<path opacity="0.15" d="M74.587 61.0057C72.2016 60.2567 67.959 57.3985 67.959 57.3985C69.6333 57.5742 71.325 57.4848 72.9711 57.1335L73.1404 57.0928L73.4687 56.996H73.5149L74.587 61.0057Z" fill="black"/>
<path opacity="0.15" d="M55.4165 89.5474L53.1028 104.832L51.2868 116.622L47.0596 120.112L56.2578 116.795C56.2578 116.795 53.8723 110.029 55.4165 89.5474Z" fill="black"/>
<path opacity="0.15" d="M52.6562 131.3C53.749 131.54 54.8468 131.749 55.96 131.932C56.0165 130.888 56.1191 129.833 56.2627 128.778L52.6562 131.3Z" fill="black"/>
<defs>
<linearGradient id="paint0_linear" x1="67.2733" y1="7.86511" x2="65.0293" y2="138.076" gradientUnits="userSpaceOnUse">
<stop stop-color="white" stop-opacity="0"/>
<stop offset="1" stop-color="#64B5F6" stop-opacity="0.6"/>
</linearGradient>
<linearGradient id="paint1_linear" x1="79.4093" y1="67.1653" x2="97.5594" y2="99.279" gradientUnits="userSpaceOnUse">
<stop stop-color="#E57373"/>
<stop offset="1" stop-color="#AD1457"/>
</linearGradient>
<linearGradient id="paint2_linear" x1="28086.2" y1="39725.5" x2="26174.2" y2="49226.9" gradientUnits="userSpaceOnUse">
<stop stop-color="#E57373"/>
<stop offset="1" stop-color="#AD1457"/>
</linearGradient>
<linearGradient id="paint3_linear" x1="147.122" y1="78.9397" x2="97.5887" y2="107.833" gradientUnits="userSpaceOnUse">
<stop stop-color="#FFF8E1"/>
<stop offset="1" stop-color="#FFCC80"/>
</linearGradient>
<linearGradient id="paint4_linear" x1="21597.4" y1="22250.6" x2="18926.7" y2="20437.4" gradientUnits="userSpaceOnUse">
<stop stop-color="#FFF8E1"/>
<stop offset="1" stop-color="#FFCC80"/>
</linearGradient>
<linearGradient id="paint5_linear" x1="83.7031" y1="44.4387" x2="56.6613" y2="55.652" gradientUnits="userSpaceOnUse">
<stop stop-color="#FFF8E1"/>
<stop offset="1" stop-color="#FFCC80"/>
</linearGradient>
<linearGradient id="paint6_linear" x1="77.4861" y1="15.1463" x2="46.0533" y2="57.9109" gradientUnits="userSpaceOnUse">
<stop stop-color="#FFB74D"/>
<stop offset="1" stop-color="#F4511E"/>
</linearGradient>
</defs>
</svg>
