<svg width="255" height="174" viewBox="0 0 255 174" fill="none" xmlns="http://www.w3.org/2000/svg">
<g filter="url(#filter0_d)">
<path d="M85.423 10H57.9925C54.2072 10 51.1387 13.0475 51.1387 16.8068V44.0493C51.1387 47.8086 54.2072 50.8561 57.9925 50.8561H85.423C89.2083 50.8561 92.2768 47.8086 92.2768 44.0493V16.8068C92.2768 13.0475 89.2083 10 85.423 10Z" fill="#56CCF2"/>
</g>
<path d="M82 29H77.83L81.07 25.76L79.66 24.34L75 29H73V27L77.66 22.34L76.24 20.93L73 24.17V20H71V24.17L67.76 20.93L66.34 22.34L71 27V29H69L64.34 24.34L62.93 25.76L66.17 29H62V31H66.17L62.93 34.24L64.34 35.66L69 31H71V33L66.34 37.66L67.76 39.07L71 35.83V40H73V35.83L76.24 39.07L77.66 37.66L73 33V31H75L79.66 35.66L81.07 34.24L77.83 31H82V29Z" fill="white"/>
<g filter="url(#filter1_d)">
<path d="M227.284 113H199.854C196.069 113 193 116.048 193 119.807V147.049C193 150.809 196.069 153.856 199.854 153.856H227.284C231.07 153.856 234.138 150.809 234.138 147.049V119.807C234.138 116.048 231.07 113 227.284 113Z" fill="#F2C94C"/>
</g>
<path d="M223 130C223 125 219 121 214 121C209 121 205 125 205 130C205 133.1 206.6 135.9 209 137.5V140C209 141.3 209.8 142.4 211 142.8V143C211 144.7 212.3 146 214 146C215.7 146 217 144.7 217 143V142.8C218.2 142.4 219 141.3 219 140V137.5C221.4 135.9 223 133.1 223 130ZM207 130C207 126.1 210.1 123 214 123C217.9 123 221 126.1 221 130C221 133.5 218.4 136.4 215 136.9V134.4L216.7 132.7C217.1 132.3 217.1 131.7 216.7 131.3C216.3 130.9 215.7 130.9 215.3 131.3L214 132.6L212.7 131.3C212.3 130.9 211.7 130.9 211.3 131.3C210.9 131.7 210.9 132.3 211.3 132.7L213 134.4V136.9C209.6 136.4 207 133.5 207 130ZM214 144C213.4 144 213 143.6 213 143H215C215 143.6 214.6 144 214 144ZM217 140C217 140.6 216.6 141 216 141H212C211.4 141 211 140.6 211 140V138.5C211.9 138.8 212.9 139 214 139C215.1 139 216.1 138.8 217 138.5V140Z" fill="white"/>
<g filter="url(#filter2_d)">
<path d="M44.2844 113H16.8538C13.0685 113 10 116.048 10 119.807V147.049C10 150.809 13.0685 153.856 16.8538 153.856H44.2844C48.0696 153.856 51.1381 150.809 51.1381 147.049V119.807C51.1381 116.048 48.0696 113 44.2844 113Z" fill="#F58A8A"/>
</g>
<path d="M37 130H36V128C36 125.24 33.76 123 31 123C28.24 123 26 125.24 26 128V130H25C23.9 130 23 130.9 23 132V142C23 143.1 23.9 144 25 144H37C38.1 144 39 143.1 39 142V132C39 130.9 38.1 130 37 130ZM31 139C29.9 139 29 138.1 29 137C29 135.9 29.9 135 31 135C32.1 135 33 135.9 33 137C33 138.1 32.1 139 31 139ZM34.1 130H27.9V128C27.9 126.29 29.29 124.9 31 124.9C32.71 124.9 34.1 126.29 34.1 128V130Z" fill="white"/>
<g filter="url(#filter3_d)">
<path d="M182.284 10H154.854C151.069 10 148 13.0475 148 16.8068V44.0493C148 47.8086 151.069 50.8561 154.854 50.8561H182.284C186.07 50.8561 189.138 47.8086 189.138 44.0493V16.8068C189.138 13.0475 186.07 10 182.284 10Z" fill="#6FCF97"/>
</g>
<path d="M174.311 24.8965H157.979V35.1033H174.311V24.8965Z" fill="white"/>
<path d="M178.713 26.9276L175.108 28.4427V31.6003L178.713 33.1153H180.02V26.9276H178.713Z" fill="white"/>
<defs>
<filter id="filter0_d" x="41.1387" y="0" width="71.1381" height="70.8561" filterUnits="userSpaceOnUse" color-interpolation-filters="sRGB">
<feFlood flood-opacity="0" result="BackgroundImageFix"/>
<feColorMatrix in="SourceAlpha" type="matrix" values="0 0 0 0 0 0 0 0 0 0 0 0 0 0 0 0 0 0 127 0"/>
<feOffset dx="5" dy="5"/>
<feGaussianBlur stdDeviation="7.5"/>
<feColorMatrix type="matrix" values="0 0 0 0 0 0 0 0 0 0 0 0 0 0 0 0 0 0 0.15 0"/>
<feBlend mode="normal" in2="BackgroundImageFix" result="effect1_dropShadow"/>
<feBlend mode="normal" in="SourceGraphic" in2="effect1_dropShadow" result="shape"/>
</filter>
<filter id="filter1_d" x="183" y="103" width="71.1381" height="70.8561" filterUnits="userSpaceOnUse" color-interpolation-filters="sRGB">
<feFlood flood-opacity="0" result="BackgroundImageFix"/>
<feColorMatrix in="SourceAlpha" type="matrix" values="0 0 0 0 0 0 0 0 0 0 0 0 0 0 0 0 0 0 127 0"/>
<feOffset dx="5" dy="5"/>
<feGaussianBlur stdDeviation="7.5"/>
<feColorMatrix type="matrix" values="0 0 0 0 0 0 0 0 0 0 0 0 0 0 0 0 0 0 0.15 0"/>
<feBlend mode="normal" in2="BackgroundImageFix" result="effect1_dropShadow"/>
<feBlend mode="normal" in="SourceGraphic" in2="effect1_dropShadow" result="shape"/>
</filter>
<filter id="filter2_d" x="0" y="103" width="71.1381" height="70.8561" filterUnits="userSpaceOnUse" color-interpolation-filters="sRGB">
<feFlood flood-opacity="0" result="BackgroundImageFix"/>
<feColorMatrix in="SourceAlpha" type="matrix" values="0 0 0 0 0 0 0 0 0 0 0 0 0 0 0 0 0 0 127 0"/>
<feOffset dx="5" dy="5"/>
<feGaussianBlur stdDeviation="7.5"/>
<feColorMatrix type="matrix" values="0 0 0 0 0 0 0 0 0 0 0 0 0 0 0 0 0 0 0.15 0"/>
<feBlend mode="normal" in2="BackgroundImageFix" result="effect1_dropShadow"/>
<feBlend mode="normal" in="SourceGraphic" in2="effect1_dropShadow" result="shape"/>
</filter>
<filter id="filter3_d" x="138" y="0" width="71.1381" height="70.8561" filterUnits="userSpaceOnUse" color-interpolation-filters="sRGB">
<feFlood flood-opacity="0" result="BackgroundImageFix"/>
<feColorMatrix in="SourceAlpha" type="matrix" values="0 0 0 0 0 0 0 0 0 0 0 0 0 0 0 0 0 0 127 0"/>
<feOffset dx="5" dy="5"/>
<feGaussianBlur stdDeviation="7.5"/>
<feColorMatrix type="matrix" values="0 0 0 0 0 0 0 0 0 0 0 0 0 0 0 0 0 0 0.15 0"/>
<feBlend mode="normal" in2="BackgroundImageFix" result="effect1_dropShadow"/>
<feBlend mode="normal" in="SourceGraphic" in2="effect1_dropShadow" result="shape"/>
</filter>
</defs>
</svg>
