<svg width="688" height="580" viewBox="0 0 688 580" fill="none" xmlns="http://www.w3.org/2000/svg">
<path opacity="0.4" d="M624.607 31.4102C479.832 -37.4825 415.969 150.909 316.138 181.906C216.394 227.253 120.215 174.176 60.8283 219.674C-33.3064 291.794 8.01039 417.963 68.2737 471.05C154.694 547.18 308.272 519.78 467.012 437.462C665.894 334.329 751.55 91.8174 624.607 31.4102Z" fill="#98C3E8"/>
<path opacity="0.2" d="M143.5 106.5C148.5 119 133.5 138.5 112 145C93.4998 150.593 75.4998 150 70.4998 137C66.0767 125.5 79.9998 113 95.9998 106.5C112 100 138.5 94 143.5 106.5Z" fill="#98C3E8"/>
<path opacity="0.2" d="M307 81C303.109 71.0604 316.816 47.8658 333.802 42.7986C348.419 38.4383 362.111 28.1637 366 38.5C369.44 47.6437 358.909 68.3246 346.26 73.415C333.612 78.5054 310.891 90.9396 307 81Z" fill="#98C3E8"/>
<path opacity="0.2" d="M295.792 573.215C291.901 563.276 303.816 547.866 320.802 542.799C335.419 538.438 349.614 538.985 353.503 549.321C356.944 558.465 345.908 568.325 333.26 573.415C320.612 578.505 299.684 583.155 295.792 573.215Z" fill="#98C3E8"/>
<path opacity="0.2" d="M471.573 522.55C463.478 503.52 489.279 461.235 524.573 451.55C554.942 443.216 603.982 460.26 612.072 480.05C619.229 497.555 572.353 494.66 546.074 504.393C519.795 514.126 479.667 541.579 471.573 522.55Z" fill="#98C3E8"/>
<mask id="mask0" mask-type="alpha" maskUnits="userSpaceOnUse" x="20" y="20" width="648" height="490">
<path d="M606.962 32.9443C466.39 -29.131 410.042 153.479 315.141 186.024C220.694 232.339 127.118 184.084 71.3641 229.416C-17.0125 301.272 25.8608 421.217 85.0062 470.486C169.824 541.139 316.342 510.544 466.39 427.093C654.38 322.539 730.22 87.3739 606.962 32.9443Z" fill="#98C3E8"/>
</mask>
<g mask="url(#mask0)">
<rect x="-85.083" y="-60.5983" width="805.162" height="681.485" fill="url(#paint0_linear)"/>
<path d="M16.5085 156.467C90.336 193.697 172.998 297.904 172.998 347.662C172.998 408.869 43.221 502.678 -16.3037 555.893L491.655 588.705C473.566 507.726 427.894 327.7 455.688 287.716C491.655 235.974 637.207 248.594 718.816 258.059L740.902 27.7424C701.148 44.3588 612.177 92.1048 563.589 79.4847C518.615 67.8031 432.34 17.4359 395.742 -14.5349" stroke="white" stroke-opacity="0.2" stroke-width="15"/>
<path d="M206.441 99.6768C226.634 204.844 281.531 397.637 339.583 327.469C412.149 239.76 469.57 126.179 523.837 201.269C567.25 261.34 631.107 379.843 657.61 431.585" stroke="white" stroke-opacity="0.2" stroke-width="15"/>
<path fill-rule="evenodd" clip-rule="evenodd" d="M434 161C434 165.418 430.418 169 426 169C421.582 169 418 165.418 418 161C418 156.582 421.582 153 426 153C430.418 153 434 156.582 434 161ZM103 334C107.418 334 111 330.418 111 326C111 321.582 107.418 318 103 318C98.5817 318 95 321.582 95 326C95 330.418 98.5817 334 103 334ZM277 436C281.418 436 285 432.418 285 428C285 423.582 281.418 420 277 420C272.582 420 269 423.582 269 428C269 432.418 272.582 436 277 436ZM551 318C555.418 318 559 314.418 559 310C559 305.582 555.418 302 551 302C546.582 302 543 305.582 543 310C543 314.418 546.582 318 551 318Z" fill="white" fill-opacity="0.6"/>
<circle cx="73" cy="413" r="18" stroke="white" stroke-opacity="0.4" stroke-width="8"/>
<circle cx="653" cy="136" r="18" stroke="white" stroke-opacity="0.4" stroke-width="8"/>
<circle cx="403" cy="369" r="18" stroke="white" stroke-opacity="0.4" stroke-width="8"/>
</g>
<defs>
<linearGradient id="paint0_linear" x1="375.616" y1="-106.319" x2="337.792" y2="564.507" gradientUnits="userSpaceOnUse">
<stop stop-color="#D1ECFF"/>
<stop offset="1" stop-color="#1070B1"/>
</linearGradient>
</defs>
</svg>
