<svg width="375" height="289" viewBox="0 0 375 289" fill="none" xmlns="http://www.w3.org/2000/svg">
<path d="M117 287L115.5 282L123.5 280.5C127.333 282.5 134.7 286.9 133.5 288.5C133.1 289.3 122.333 287.833 117 287Z" fill="#D06262"/>
<path d="M76.5 240L81 247.5C80.6667 252.667 79.6 262.8 78 262C76.4 261.2 71.3333 248.333 69 242L76.5 240Z" fill="#D06262"/>
<path d="M50.3285 194.993C44.9991 189.458 40.1564 179.024 38.4013 174.5C43.529 172.019 54.9245 166.352 59.4845 163.522C64.0445 160.693 72.6929 154.274 76.4471 151.418C78.6371 153.392 85.01 158.262 92.981 161.948C113.452 171.613 125.145 184.095 129.185 195.272C132.418 204.213 119.175 217.449 111.651 222.994C107.292 215.586 104.669 212.59 99.5006 205.534L101.257 197.338L90.933 194.271C92.4592 196.307 97.4608 203.01 105.258 213.54C119.328 231.125 124.2 261.172 124.878 273.997C122.253 274.573 115.79 275.636 110.937 275.279C110.364 269.05 102.559 255.211 95.1063 242.959C93.5899 244.773 91.4886 246.942 90.2647 247.054C84.0701 245.214 82.1512 237.089 81.966 233.256L86.6477 229.335C86.0061 228.31 85.4056 227.349 84.856 226.463C77.1926 214.113 56.9902 201.912 50.3285 194.993Z" fill="#1F3F68"/>
<path d="M78.347 150.239C63.8128 161.451 33.7279 181.557 29.6621 172.291C24.5798 160.708 25.5756 160.616 22.7656 157.36C19.9555 154.103 19.2686 146.635 17.998 143.739C17.3594 142.284 12.211 135.917 8.09535 128.08C8.09535 128.08 7.9717 127.853 7.76254 127.439C4.84058 121.737 2.53289 115.32 2.91253 109.477C3.20294 100.914 9.71625 95.3913 9.71625 95.3913C13.5981 91.2529 17.2389 90.558 18.5 90.6695L18.5233 90.6853C21.5582 92.7492 26.0452 95.8005 27.6344 95.6543C29.2277 95.5078 31.5 92.5 33 91C40.6059 91.8068 42.9286 89.8586 48.8736 90.6695C56.2052 91.6695 76 102 91.5002 74.5C93.0397 74.8605 96.5105 76.229 99 76C90.5001 101 83 108.781 76 111.231C70.6276 113.112 66.3951 113.636 63.0516 113.602C62.4382 116.863 61.6227 122.224 60.2635 127.691C63.0578 132.807 66.0116 137.505 68.3316 139.612C74.358 145.083 81.1631 148.102 78.347 150.239Z" fill="white"/>
<path d="M78.062 179.89L91.4771 194.723L101.258 197.338L100.674 201.911C102.919 199.027 105.797 192.101 99.346 187.472C92.8949 182.844 82.4687 180.489 78.062 179.89Z" fill="black" fill-opacity="0.2"/>
<path d="M86.6248 229.313L94.9235 243.111L93.5671 244.742C92.3424 242.344 89.126 240.129 86.4075 237.869C84.2328 236.061 83.7768 232.922 83.8206 231.579L86.6248 229.313Z" fill="black" fill-opacity="0.2"/>
<path d="M48.0673 154.028C33.8696 152.522 16.6038 137.675 9.74559 130.439C25.6043 144.546 44.0324 148.374 49.8698 146.331C54.5397 144.696 58.1198 132.527 60.0006 127.5L63.7992 134.003C64.4709 141.306 62.2649 155.534 48.0673 154.028Z" fill="black" fill-opacity="0.2"/>
<path d="M42.9674 125.877C39.8195 126.452 31.6739 119.551 28.0187 116.206C41.4737 126.014 41.5005 121 58.5005 109C57.7623 110.072 50.5005 124.5 42.9674 125.877Z" fill="black" fill-opacity="0.2"/>
<path d="M63.5 111.5C61.7872 111.156 60.296 110.576 58.5 109L60 105.5C59.8333 104.667 59.6 102.8 60 102C60.4 101.2 62 100.333 62.5 100L62 102.5L64.5 99.5L68.5 103L68 106.5L65 108L63.5 111.5Z" fill="#F2994A"/>
<path d="M100 71L99 76C97.4 76.4 93.1667 75.1667 91.5 74.5C92 73 93.6 69 94 67C94.4 65 98.1667 62.8333 100 62H102L100 65.5V71Z" fill="#F2994A"/>
<path d="M15.9997 80.5C16.7997 82.1 18.9997 85.5 19.9997 87C20.6664 85.6667 21.5998 82.7 19.9997 81.5C18.3997 80.3 16.9997 78.3333 16.4998 77.5C16.9998 77.1667 18.2998 76.5 19.4998 76.5C18.6998 70.5 22.8331 68.3333 24.9998 68L33.4998 67.5L33.9998 70C37.1664 67 42.8998 60.5 40.4998 58.5C37.4998 56 28.4998 62.5 22.4998 62.5C16.4998 62.5 13.9997 65.5 12.4997 68.5C10.9997 71.5 14.9997 78.5 15.9997 80.5Z" fill="#316099"/>
<path d="M27.5 96C25.9 96 21.3333 92.8334 18.5 91C19.8333 90.3334 20.5 87.8 20.5 87C20.5 86 21.5 82 20.5 81.5C19.5 81 16.5 79 16.5 78C16.5 77.2 18.5 77 19.5 77C19.1667 75.3334 19.1 71.5 21.5 69.5C23.9 67.5 30.5 67.3334 33.5 67.5C33.6667 68.1667 34.3 71 35.5 77C36.7 83 34 85.8334 32.5 86.5L33 91C31.8333 92.5 29.1 96 27.5 96Z" fill="#F2994A"/>
<path d="M123.5 280.5L123 274.5C119.469 275.446 117.371 275.613 113.5 275.5L115.5 282L123.5 280.5Z" fill="#98C3E8"/>
<path d="M81 247.5L87 245.5C84.3218 242.423 83.4206 240.668 82.5 237.5L76.5 240L81 247.5Z" fill="#98C3E8"/>
<rect opacity="0.8" x="108" width="266.284" height="189.301" rx="5" fill="url(#paint0_linear)"/>
<path d="M108 5C108 2.23857 110.239 0 113 0H184.983V189.301H113C110.239 189.301 108 187.063 108 184.301V5Z" fill="white"/>
<circle cx="120" cy="12" r="4" fill="#FA9595"/>
<circle cx="133" cy="12" r="4" fill="#FDF397"/>
<circle cx="145" cy="12" r="4" fill="#C1FEBB"/>
<path opacity="0.4" fill-rule="evenodd" clip-rule="evenodd" d="M117 106H175V113H117V106ZM117 120H175V127H117V120ZM156 136H117V143H156V136Z" fill="#5A98D0"/>
<path opacity="0.1" fill-rule="evenodd" clip-rule="evenodd" d="M294 25H352V32H294V25ZM294 39H352V46H294V39ZM333 55H294V62H333V55Z" fill="black"/>
<g filter="url(#filter0_d)">
<rect x="100" y="26" width="81" height="50" rx="5" fill="#56CCF2"/>
</g>
<path d="M124.344 48.136C123.688 47.24 122.76 46.792 121.544 46.792C120.44 46.792 119.512 47.192 118.728 48.008C117.944 48.824 117.56 49.816 117.56 51C117.56 52.168 117.944 53.176 118.728 53.992C119.512 54.808 120.44 55.208 121.544 55.208C122.76 55.208 123.688 54.76 124.344 53.848V55H126.072V47H124.344V48.136ZM120.008 52.84C119.528 52.344 119.288 51.736 119.288 51C119.288 50.264 119.528 49.656 120.008 49.176C120.488 48.68 121.096 48.44 121.816 48.44C122.536 48.44 123.144 48.68 123.624 49.176C124.104 49.656 124.344 50.264 124.344 51C124.344 51.736 124.104 52.344 123.624 52.84C123.144 53.32 122.536 53.56 121.816 53.56C121.096 53.56 120.488 53.32 120.008 52.84ZM133.078 43.592C130.71 43.448 129.462 44.648 129.462 46.84V47H128.246V48.664H129.462V55H131.19V48.664H133.078V47H131.19V46.84C131.19 45.672 131.814 45.144 133.078 45.256V43.592ZM136.617 47H134.889V55H136.617V50.968C136.617 50.152 136.857 49.56 137.353 49.208C137.849 48.84 138.425 48.68 139.081 48.728V46.856C137.881 46.856 137.049 47.352 136.617 48.344V47ZM142.79 45.48C143.238 45.032 143.238 44.36 142.806 43.928C142.374 43.48 141.67 43.48 141.238 43.928C140.806 44.36 140.806 45.032 141.238 45.48C141.686 45.912 142.358 45.912 142.79 45.48ZM142.886 55V47H141.158V55H142.886ZM152.028 48.136C151.372 47.24 150.444 46.792 149.228 46.792C148.124 46.792 147.196 47.192 146.412 48.008C145.628 48.824 145.244 49.816 145.244 51C145.244 52.168 145.628 53.176 146.412 53.992C147.196 54.808 148.124 55.208 149.228 55.208C150.444 55.208 151.372 54.76 152.028 53.848V55H153.756V47H152.028V48.136ZM147.692 52.84C147.212 52.344 146.972 51.736 146.972 51C146.972 50.264 147.212 49.656 147.692 49.176C148.172 48.68 148.78 48.44 149.5 48.44C150.22 48.44 150.828 48.68 151.308 49.176C151.788 49.656 152.028 50.264 152.028 51C152.028 51.736 151.788 52.344 151.308 52.84C150.828 53.32 150.22 53.56 149.5 53.56C148.78 53.56 148.172 53.32 147.692 52.84ZM160.779 46.792C159.643 46.792 158.827 47.208 158.299 48.024V47H156.571V55H158.299V50.712C158.299 49.16 159.115 48.408 160.331 48.408C161.435 48.408 162.123 49.064 162.123 50.264V55H163.851V50.088C163.851 48.04 162.619 46.792 160.779 46.792Z" fill="white"/>
<rect x="202" y="18" width="79" height="77" rx="5" fill="#EB5757"/>
<g clip-path="url(#clip0)">
<path d="M233 43V71L255 57L233 43Z" fill="white"/>
</g>
<g filter="url(#filter1_d)">
<rect x="202" y="108" width="154" height="63" rx="5" fill="#6FCF97"/>
</g>
<path d="M215.5 153C225 146.5 229 138 247 138C265 138 266.58 148 277.5 148C290.5 148 303 128.5 317 128.5C331 128.5 334.5 138.5 342 139" stroke="black" stroke-opacity="0.1" stroke-width="2" stroke-linecap="round" stroke-linejoin="round"/>
<path d="M215 153.5C224.5 147 227 128 245 128C263 128 267.08 144.5 278 144.5C291 144.5 302.5 117.5 316.5 117.5C330.5 117.5 335 138.5 342.5 139" stroke="white" stroke-width="2" stroke-linecap="round" stroke-linejoin="round"/>
<defs>
<filter id="filter0_d" x="95" y="21" width="101" height="70" filterUnits="userSpaceOnUse" color-interpolation-filters="sRGB">
<feFlood flood-opacity="0" result="BackgroundImageFix"/>
<feColorMatrix in="SourceAlpha" type="matrix" values="0 0 0 0 0 0 0 0 0 0 0 0 0 0 0 0 0 0 127 0"/>
<feOffset dx="5" dy="5"/>
<feGaussianBlur stdDeviation="5"/>
<feColorMatrix type="matrix" values="0 0 0 0 0.0627451 0 0 0 0 0.439216 0 0 0 0 0.694118 0 0 0 0.2 0"/>
<feBlend mode="normal" in2="BackgroundImageFix" result="effect1_dropShadow"/>
<feBlend mode="normal" in="SourceGraphic" in2="effect1_dropShadow" result="shape"/>
</filter>
<filter id="filter1_d" x="192" y="102" width="174" height="83" filterUnits="userSpaceOnUse" color-interpolation-filters="sRGB">
<feFlood flood-opacity="0" result="BackgroundImageFix"/>
<feColorMatrix in="SourceAlpha" type="matrix" values="0 0 0 0 0 0 0 0 0 0 0 0 0 0 0 0 0 0 127 0"/>
<feOffset dy="4"/>
<feGaussianBlur stdDeviation="5"/>
<feColorMatrix type="matrix" values="0 0 0 0 0.435294 0 0 0 0 0.811765 0 0 0 0 0.592157 0 0 0 0.2 0"/>
<feBlend mode="normal" in2="BackgroundImageFix" result="effect1_dropShadow"/>
<feBlend mode="normal" in="SourceGraphic" in2="effect1_dropShadow" result="shape"/>
</filter>
<linearGradient id="paint0_linear" x1="114.393" y1="69.155" x2="419.893" y2="102.655" gradientUnits="userSpaceOnUse">
<stop offset="0.127122" stop-color="white"/>
<stop offset="0.972261" stop-color="white" stop-opacity="0.8"/>
</linearGradient>
<clipPath id="clip0">
<rect width="48" height="48" fill="white" transform="translate(217 33)"/>
</clipPath>
</defs>
</svg>
