<svg width="329" height="426" viewBox="0 0 329 426" fill="none" xmlns="http://www.w3.org/2000/svg">
<g filter="url(#filter0_d)">
<rect x="103" y="134" width="88" height="88" rx="10" fill="white"/>
</g>
<path d="M143 194V182H151V194H161V178H167L147 160L127 178H133V194H143Z" fill="#5A98D0"/>
<g filter="url(#filter1_d)">
<path d="M90.4231 10.7564H62.9925C59.2072 10.7564 56.1387 13.0422 56.1387 15.8619V36.2951C56.1387 39.1147 59.2072 41.4005 62.9925 41.4005H90.4231C94.2083 41.4005 97.2769 39.1147 97.2769 36.2951V15.8619C97.2769 13.0422 94.2083 10.7564 90.4231 10.7564Z" fill="#56CCF2"/>
</g>
<path d="M87 25.0074H82.83L86.07 22.5772L84.66 21.5121L80 25.0074H78V23.5073L82.66 20.012L81.24 18.9545L78 21.3846V18.2569H76V21.3846L72.76 18.9545L71.34 20.012L76 23.5073V25.0074H74L69.34 21.5121L67.93 22.5772L71.17 25.0074H67V26.5075H71.17L67.93 28.9376L69.34 30.0027L74 26.5075H76V28.0076L71.34 31.5028L72.76 32.5604L76 30.1302V33.2579H78V30.1302L81.24 32.5604L82.66 31.5028L78 28.0076V26.5075H80L84.66 30.0027L86.07 28.9376L82.83 26.5075H87V25.0074Z" fill="white"/>
<g filter="url(#filter2_d)">
<path d="M264.284 88.0114H236.854C233.069 88.0114 230 90.2972 230 93.1168V113.55C230 116.37 233.069 118.656 236.854 118.656H264.284C268.07 118.656 271.138 116.37 271.138 113.55V93.1168C271.138 90.2972 268.07 88.0114 264.284 88.0114Z" fill="#F2C94C"/>
</g>
<path d="M260 100.762C260 97.012 256 94.0118 251 94.0118C246 94.0118 242 97.012 242 100.762C242 103.087 243.6 105.188 246 106.388V108.263C246 109.238 246.8 110.063 248 110.363V110.513C248 111.788 249.3 112.763 251 112.763C252.7 112.763 254 111.788 254 110.513V110.363C255.2 110.063 256 109.238 256 108.263V106.388C258.4 105.188 260 103.087 260 100.762ZM244 100.762C244 97.8371 247.1 95.5119 251 95.5119C254.9 95.5119 258 97.8371 258 100.762C258 103.387 255.4 105.563 252 105.938V104.062L253.7 102.787C254.1 102.487 254.1 102.037 253.7 101.737C253.3 101.437 252.7 101.437 252.3 101.737L251 102.712L249.7 101.737C249.3 101.437 248.7 101.437 248.3 101.737C247.9 102.037 247.9 102.487 248.3 102.787L250 104.062V105.938C246.6 105.563 244 103.387 244 100.762ZM251 111.263C250.4 111.263 250 110.963 250 110.513H252C252 110.963 251.6 111.263 251 111.263ZM254 108.263C254 108.713 253.6 109.013 253 109.013H249C248.4 109.013 248 108.713 248 108.263V107.138C248.9 107.363 249.9 107.513 251 107.513C252.1 107.513 253.1 107.363 254 107.138V108.263Z" fill="white"/>
<g filter="url(#filter3_d)">
<path d="M44.2844 88.0114H16.8538C13.0686 88.0114 10 90.2972 10 93.1168V113.55C10 116.37 13.0686 118.655 16.8538 118.655H44.2844C48.0696 118.655 51.1382 116.37 51.1382 113.55V93.1168C51.1382 90.2972 48.0696 88.0114 44.2844 88.0114Z" fill="#F58A8A"/>
</g>
<g clip-path="url(#clip0)">
<path d="M37 100.012H36V98.5121C36 96.442 33.76 94.7619 31 94.7619C28.24 94.7619 26 96.442 26 98.5121V100.012H25C23.9 100.012 23 100.687 23 101.512V109.013C23 109.838 23.9 110.513 25 110.513H37C38.1 110.513 39 109.838 39 109.013V101.512C39 100.687 38.1 100.012 37 100.012ZM31 106.763C29.9 106.763 29 106.088 29 105.263C29 104.437 29.9 103.762 31 103.762C32.1 103.762 33 104.437 33 105.263C33 106.088 32.1 106.763 31 106.763ZM34.1 100.012H27.9V98.5121C27.9 97.2295 29.29 96.187 31 96.187C32.71 96.187 34.1 97.2295 34.1 98.5121V100.012Z" fill="white"/>
</g>
<g filter="url(#filter4_d)">
<path d="M218.284 10.7564H190.854C187.069 10.7564 184 13.0422 184 15.8619V36.2951C184 39.1147 187.069 41.4005 190.854 41.4005H218.284C222.07 41.4005 225.138 39.1147 225.138 36.2951V15.8619C225.138 13.0422 222.07 10.7564 218.284 10.7564Z" fill="#6FCF97"/>
</g>
<path d="M210.311 21.9295H193.979V29.5851H210.311V21.9295Z" fill="white"/>
<path d="M214.713 23.4529L211.108 24.5893V26.9576L214.713 28.094H216.02V23.4529H214.713Z" fill="white"/>
<path d="M150.39 217C149.274 221.364 150.787 223.88 151.978 224.5C154.34 225.73 156.977 227.27 156.977 227.27C156.977 227.27 173.406 255.414 178.168 257.429C183.724 259.778 196.422 261 196.422 261L201.978 249.889C201.978 249.889 189.279 247.111 183.724 245.921C179.98 245.118 163.486 227.27 163.486 227.27L166.66 221.714H160.708C156.343 218.54 153.977 212 153.977 212C153.977 212 151.153 214.02 150.39 217Z" fill="url(#paint0_linear)"/>
<path d="M215.478 267.5C213.478 265.5 201.978 262.333 196.478 261L201.978 250C204.144 250 210.478 249.5 218.478 247.5C228.478 245 231.978 236 243.478 245.5C252.678 253.1 268.644 286.333 275.478 302C264.731 312.243 257.594 315.569 243.478 318.5C242.644 316.833 240.178 311.2 236.978 302C232.978 290.5 220.478 290.5 218.478 286.5C216.478 282.5 217.978 270 215.478 267.5Z" fill="url(#paint1_linear)"/>
<path d="M251.478 381C247.878 373 247.811 335 246.478 317.5C258.671 315.103 265.111 312.016 275.478 301.5C275.478 301.5 292.478 309.5 291.478 328C290.478 346.5 297.998 355.841 302.478 362C306.478 367.5 315.978 379.167 320.978 387L315.978 396.5C310.478 390.667 294.378 378.8 285.978 372C277.578 365.2 274.811 348.167 273.478 339C272.644 348.667 268.478 366.4 270.478 372C272.478 377.6 293.978 394.5 302.478 403L299.478 411.5C284.978 404.667 255.078 389 251.478 381Z" fill="url(#paint2_linear)"/>
<path d="M209.477 233.5C209.877 231.9 209.311 227.167 209.978 225.5C214.778 226.3 217.477 229.667 218.477 231C219.477 230.833 220.912 230.369 221.477 231.5C221.977 232.5 221.477 234.5 219.977 236L223.477 245.5C221.819 246.577 220.809 246.939 218.977 247.5C219.977 245 219.477 243 218.977 242C215.377 244.8 213.977 244.667 212.477 244.5L210.977 238L208.478 238.5C208.978 237.667 209.077 235.1 209.477 233.5Z" fill="url(#paint3_linear)"/>
<path d="M218.477 231C216.477 228.2 211.644 226.167 209.477 225.5C205.477 222.5 207.477 216 216.977 213C226.477 210 230.477 218 232.477 220C234.477 222 235.477 228.5 244.477 232.5C253.477 236.5 252.977 231.5 258.477 231.5C263.977 231.5 266.477 235 265.477 238C264.477 241 263.977 244.5 269.977 248.5C275.977 252.5 270.477 258 269.977 264C269.477 270 261.477 267 252.977 267C244.477 267 245.977 267 244.477 261.5C242.977 256 240.477 254 237.477 252.5C234.477 251 227.477 252 225.977 250.5C224.777 249.3 221.477 240.333 219.977 236C220.644 235 221.877 232.7 221.477 231.5C221.077 230.3 219.31 230.667 218.477 231Z" fill="#F2994A"/>
<path d="M199.478 291.5L223.478 290C226.278 290.4 230.978 293.833 232.978 295.5C232.311 297 230.378 300 227.978 300C225.578 300 207.978 297 199.478 295.5H197.478V288L199.478 291.5Z" fill="url(#paint4_linear)"/>
<path d="M197.478 299V282H188.978V299H197.478Z" fill="#F2C94C"/>
<path d="M315.978 425.5C313.578 425.1 303.811 415.833 299.478 411.5L302.478 403C304.478 403.833 308.678 405.3 309.478 406.5C310.478 408 318.978 426 315.978 425.5Z" fill="#5A98D0"/>
<path d="M327.978 414.5C326.778 412.5 319.478 402.833 315.978 396.5L320.978 387C323.311 389 323.478 389 325.978 392.5C327.14 394.127 329.478 417 327.978 414.5Z" fill="#5A98D0"/>
<path opacity="0.2" d="M276.478 324.5L273.478 339.5C273.978 345 276.978 358.5 281.978 368C275.978 349 277.978 334.833 276.478 324.5Z" fill="black"/>
<defs>
<filter id="filter0_d" x="53" y="84" width="188" height="188" filterUnits="userSpaceOnUse" color-interpolation-filters="sRGB">
<feFlood flood-opacity="0" result="BackgroundImageFix"/>
<feColorMatrix in="SourceAlpha" type="matrix" values="0 0 0 0 0 0 0 0 0 0 0 0 0 0 0 0 0 0 127 0"/>
<feOffset/>
<feGaussianBlur stdDeviation="25"/>
<feColorMatrix type="matrix" values="0 0 0 0 0.0627451 0 0 0 0 0.439216 0 0 0 0 0.694118 0 0 0 0.25 0"/>
<feBlend mode="normal" in2="BackgroundImageFix" result="effect1_dropShadow"/>
<feBlend mode="normal" in="SourceGraphic" in2="effect1_dropShadow" result="shape"/>
</filter>
<filter id="filter1_d" x="46.1387" y="0.756439" width="71.1382" height="60.6441" filterUnits="userSpaceOnUse" color-interpolation-filters="sRGB">
<feFlood flood-opacity="0" result="BackgroundImageFix"/>
<feColorMatrix in="SourceAlpha" type="matrix" values="0 0 0 0 0 0 0 0 0 0 0 0 0 0 0 0 0 0 127 0"/>
<feOffset dx="5" dy="5"/>
<feGaussianBlur stdDeviation="7.5"/>
<feColorMatrix type="matrix" values="0 0 0 0 0 0 0 0 0 0 0 0 0 0 0 0 0 0 0.15 0"/>
<feBlend mode="normal" in2="BackgroundImageFix" result="effect1_dropShadow"/>
<feBlend mode="normal" in="SourceGraphic" in2="effect1_dropShadow" result="shape"/>
</filter>
<filter id="filter2_d" x="220" y="78.0114" width="71.1382" height="60.6441" filterUnits="userSpaceOnUse" color-interpolation-filters="sRGB">
<feFlood flood-opacity="0" result="BackgroundImageFix"/>
<feColorMatrix in="SourceAlpha" type="matrix" values="0 0 0 0 0 0 0 0 0 0 0 0 0 0 0 0 0 0 127 0"/>
<feOffset dx="5" dy="5"/>
<feGaussianBlur stdDeviation="7.5"/>
<feColorMatrix type="matrix" values="0 0 0 0 0 0 0 0 0 0 0 0 0 0 0 0 0 0 0.15 0"/>
<feBlend mode="normal" in2="BackgroundImageFix" result="effect1_dropShadow"/>
<feBlend mode="normal" in="SourceGraphic" in2="effect1_dropShadow" result="shape"/>
</filter>
<filter id="filter3_d" x="0" y="78.0114" width="71.1382" height="60.6441" filterUnits="userSpaceOnUse" color-interpolation-filters="sRGB">
<feFlood flood-opacity="0" result="BackgroundImageFix"/>
<feColorMatrix in="SourceAlpha" type="matrix" values="0 0 0 0 0 0 0 0 0 0 0 0 0 0 0 0 0 0 127 0"/>
<feOffset dx="5" dy="5"/>
<feGaussianBlur stdDeviation="7.5"/>
<feColorMatrix type="matrix" values="0 0 0 0 0 0 0 0 0 0 0 0 0 0 0 0 0 0 0.15 0"/>
<feBlend mode="normal" in2="BackgroundImageFix" result="effect1_dropShadow"/>
<feBlend mode="normal" in="SourceGraphic" in2="effect1_dropShadow" result="shape"/>
</filter>
<filter id="filter4_d" x="174" y="0.756439" width="71.1382" height="60.6441" filterUnits="userSpaceOnUse" color-interpolation-filters="sRGB">
<feFlood flood-opacity="0" result="BackgroundImageFix"/>
<feColorMatrix in="SourceAlpha" type="matrix" values="0 0 0 0 0 0 0 0 0 0 0 0 0 0 0 0 0 0 127 0"/>
<feOffset dx="5" dy="5"/>
<feGaussianBlur stdDeviation="7.5"/>
<feColorMatrix type="matrix" values="0 0 0 0 0 0 0 0 0 0 0 0 0 0 0 0 0 0 0.15 0"/>
<feBlend mode="normal" in2="BackgroundImageFix" result="effect1_dropShadow"/>
<feBlend mode="normal" in="SourceGraphic" in2="effect1_dropShadow" result="shape"/>
</filter>
<linearGradient id="paint0_linear" x1="209.735" y1="224.576" x2="157.964" y2="258.395" gradientUnits="userSpaceOnUse">
<stop stop-color="#FFF8E1"/>
<stop offset="1" stop-color="#FFCC80"/>
</linearGradient>
<linearGradient id="paint1_linear" x1="235.978" y1="241.241" x2="235.978" y2="318.5" gradientUnits="userSpaceOnUse">
<stop stop-color="#AF6CED"/>
<stop offset="1" stop-color="#5E199D"/>
</linearGradient>
<linearGradient id="paint2_linear" x1="283.728" y1="301.5" x2="283.728" y2="411.5" gradientUnits="userSpaceOnUse">
<stop stop-color="#EB5757"/>
<stop offset="1" stop-color="#872727"/>
</linearGradient>
<linearGradient id="paint3_linear" x1="225.716" y1="231.146" x2="207.595" y2="238.755" gradientUnits="userSpaceOnUse">
<stop stop-color="#FFF8E1"/>
<stop offset="1" stop-color="#FFCC80"/>
</linearGradient>
<linearGradient id="paint4_linear" x1="238.276" y1="291.08" x2="226.596" y2="312.359" gradientUnits="userSpaceOnUse">
<stop stop-color="#FFF8E1"/>
<stop offset="1" stop-color="#FFCC80"/>
</linearGradient>
<clipPath id="clip0">
<rect width="24" height="18.0012" fill="white" transform="translate(19 94.0118)"/>
</clipPath>
</defs>
</svg>
